<?xml version="1.0" encoding="utf-8"?>
<!-- Generator: Adobe Illustrator 18.0.0, SVG Export Plug-In . SVG Version: 6.00 Build 0)  -->
<!DOCTYPE svg PUBLIC "-//W3C//DTD SVG 1.1//EN" "http://www.w3.org/Graphics/SVG/1.1/DTD/svg11.dtd">
<svg version="1.1" id="Layer_1" xmlns="http://www.w3.org/2000/svg" xmlns:xlink="http://www.w3.org/1999/xlink" x="0px" y="0px"
	 width="123.6px" height="43.3px" viewBox="0 0 123.6 43.3" style="enable-background:new 0 0 123.6 43.3;" xml:space="preserve">
<style type="text/css">
	.st0{fill:#0747A6;}
</style>
<g>
	<path class="st0" d="M18.9,14.9c1.8,0.5,3.3,1.2,4.6,2.1l-2.3,4.6c-1.3-0.8-2.6-1.4-4.1-1.9c-1.5-0.4-2.9-0.7-4.1-0.7
		c-1.3,0-2.3,0.2-3.1,0.7c-0.7,0.5-1.1,1.2-1.1,2.1c0,1,0.4,1.7,1.3,2.2c0.9,0.5,2.3,1.1,4.4,1.7c1.9,0.6,3.6,1.2,4.8,1.7
		c1.3,0.6,2.4,1.4,3.3,2.6c0.9,1.1,1.4,2.7,1.4,4.5c0,2.8-1.1,4.9-3.2,6.4c-2.1,1.4-4.7,2.2-7.8,2.2c-2.2,0-4.3-0.4-6.3-1.1
		c-2.1-0.7-3.8-1.7-5.2-2.9l2.2-4.4c1.2,1.1,2.7,1.9,4.5,2.6c1.8,0.6,3.5,1,5.1,1c1.4,0,2.5-0.2,3.4-0.7c0.9-0.5,1.3-1.3,1.3-2.3
		c0-0.8-0.3-1.4-0.8-2c-0.5-0.5-1.2-0.9-1.9-1.2c-0.8-0.3-1.8-0.7-3.3-1.1c-1.9-0.6-3.5-1.1-4.7-1.7c-1.2-0.6-2.2-1.4-3.1-2.5
		C3.4,25.8,3,24.3,3,22.5c0-2.7,1-4.8,3-6.2c2-1.4,4.5-2.1,7.5-2.1C15.4,14.1,17.2,14.4,18.9,14.9z"/>
	<path class="st0" d="M51.3,18c2.2,2.5,3.4,6.1,3.4,10.8c0,0.5,0,1.2-0.1,2.3H32.9c0.5,2.2,1.6,4,3.1,5.3c1.6,1.3,3.5,1.9,5.8,1.9
		c1.5,0,3-0.3,4.4-0.9c1.4-0.6,2.6-1.4,3.7-2.5l3.3,3.5C51.7,39.9,50,41.1,48,42c-2,0.8-4.2,1.3-6.7,1.3c-2.9,0-5.5-0.6-7.7-1.8
		c-2.2-1.2-3.9-2.9-5.1-5.1c-1.2-2.2-1.8-4.7-1.8-7.5c0-2.8,0.6-5.4,1.8-7.6c1.2-2.2,2.9-3.9,5.1-5.2c2.2-1.2,4.7-1.9,7.5-1.9
		C45.7,14.2,49.1,15.4,51.3,18z M46.9,21.1c-1.4-1.3-3.3-2-5.7-2c-2.3,0-4.1,0.7-5.6,2c-1.5,1.3-2.4,3.1-2.8,5.4h16.4
		C49.1,24.3,48.3,22.4,46.9,21.1z"/>
	<path class="st0" d="M122.2,43H116v-4.9c-1,1.7-2.4,3-4.1,3.8c-1.7,0.9-3.7,1.3-6,1.3c-2.7,0-5.1-0.6-7.2-1.9
		c-2.1-1.2-3.7-3-4.8-5.2c-1.1-2.2-1.7-4.8-1.7-7.6c0-2.8,0.6-5.4,1.7-7.5c1.1-2.2,2.8-3.9,4.8-5.1c2.1-1.2,4.4-1.8,7.1-1.8
		c2.3,0,4.3,0.5,6,1.4c1.7,0.9,3.1,2.2,4.2,3.9V3.1l6.2,6.5V31V43z M112.7,35.5c1.6-1.7,2.4-4,2.4-6.7c0-2.8-0.8-5-2.4-6.8
		c-1.6-1.8-3.7-2.6-6.3-2.6c-2.6,0-4.7,0.9-6.3,2.6c-1.6,1.8-2.5,4-2.5,6.8c0,2.7,0.9,5,2.5,6.7c1.6,1.7,3.7,2.6,6.3,2.6
		C109,38.1,111.1,37.3,112.7,35.5z"/>
	<path class="st0" d="M84.7,17.1c1.9,2,2.8,4.7,2.8,8.1V43h-6.2V26.9c0-2.2-0.6-3.9-1.8-5.1c-1.2-1.2-2.9-1.9-5.1-1.9
		c-2.3,0-4.2,0.8-5.6,2.2c-1.5,1.4-2.3,3.3-2.5,5.6V43l-6.2-6.5V25.3c0-2.3,4.8-11.3,15.6-11.6C79.1,13.6,82.8,15.1,84.7,17.1z"/>
</g>
</svg>
